<svg width="80" height="80" viewBox="0 0 80 80" fill="none" xmlns="http://www.w3.org/2000/svg">
<path d="M41.4752 51.025L50.4252 60L41.4502 68.975L45.0002 72.5L57.5002 60L45.0002 47.5L41.4752 51.025ZM58.9752 51.025L67.9252 60L58.9502 68.975L62.5002 72.5L75.0002 60L62.5002 47.5L58.9752 51.025Z" fill="#BD0000"/>
<path d="M35 57.5H10V19.775L38.575 39.55C38.9935 39.8403 39.4907 39.9959 40 39.9959C40.5093 39.9959 41.0065 39.8403 41.425 39.55L70 19.775V42.5H75V17.5C75 16.1739 74.4732 14.9021 73.5355 13.9645C72.5979 13.0268 71.3261 12.5 70 12.5H10C8.67392 12.5 7.40215 13.0268 6.46447 13.9645C5.52678 14.9021 5 16.1739 5 17.5V57.5C5 58.8261 5.52678 60.0979 6.46447 61.0355C7.40215 61.9732 8.67392 62.5 10 62.5H35V57.5ZM64.5 17.5L40 34.45L15.5 17.5H64.5Z" fill="#BD0000" fill-opacity="0.2"/>
</svg>
