<svg width="18" height="18" viewBox="0 0 18 18" fill="none" xmlns="http://www.w3.org/2000/svg">
<path d="M9 14.625C7.50816 14.625 6.07742 14.0324 5.02253 12.9775C3.96764 11.9226 3.37501 10.4918 3.37501 9C3.37501 7.50816 3.96764 6.07742 5.02253 5.02252C6.07742 3.96763 7.50816 3.375 9 3.375C10.4918 3.375 11.9226 3.96763 12.9775 5.02252C14.0324 6.07742 14.625 7.50816 14.625 9C14.625 10.4918 14.0324 11.9226 12.9775 12.9775C11.9226 14.0324 10.4918 14.625 9 14.625ZM9 15.75C9.88643 15.75 10.7642 15.5754 11.5831 15.2362C12.4021 14.897 13.1462 14.3998 13.773 13.773C14.3998 13.1462 14.897 12.4021 15.2362 11.5831C15.5754 10.7642 15.75 9.88642 15.75 9C15.75 8.11358 15.5754 7.23583 15.2362 6.41689C14.897 5.59794 14.3998 4.85382 13.773 4.22703C13.1462 3.60023 12.4021 3.10303 11.5831 2.76381C10.7642 2.42459 9.88643 2.25 9 2.25C7.20979 2.25 5.4929 2.96116 4.22703 4.22703C2.96116 5.4929 2.25001 7.20979 2.25001 9C2.25001 10.7902 2.96116 12.5071 4.22703 13.773C5.4929 15.0388 7.20979 15.75 9 15.75Z" fill="white"/>
<path d="M12.8622 14.4945L11.888 15.057L12.7317 16.5184C12.7684 16.5829 12.8175 16.6395 12.8761 16.6849C12.9347 16.7304 13.0018 16.7638 13.0733 16.7832C13.1449 16.8026 13.2197 16.8077 13.2932 16.7982C13.3668 16.7886 13.4377 16.7646 13.502 16.7275C13.5662 16.6904 13.6225 16.641 13.6676 16.582C13.7126 16.5231 13.7456 16.4559 13.7645 16.3841C13.7835 16.3124 13.7881 16.2377 13.778 16.1642C13.768 16.0907 13.7435 16.0199 13.706 15.9559L12.8622 14.4945ZM5.13798 14.4945L6.11223 15.057L5.26848 16.5184C5.23182 16.5829 5.18276 16.6395 5.12413 16.6849C5.0655 16.7304 4.99846 16.7638 4.92687 16.7832C4.85528 16.8026 4.78055 16.8077 4.70699 16.7982C4.63342 16.7886 4.56248 16.7646 4.49823 16.7275C4.43399 16.6904 4.37772 16.641 4.33266 16.582C4.2876 16.5231 4.25464 16.4559 4.23568 16.3841C4.21671 16.3124 4.21213 16.2377 4.22218 16.1642C4.23223 16.0907 4.25671 16.0199 4.29423 15.9559L5.13798 14.4945ZM9.00011 9.00001H6.18761C6.03842 9.00001 5.89535 9.05927 5.78986 9.16476C5.68437 9.27025 5.62511 9.41332 5.62511 9.56251C5.62511 9.71169 5.68437 9.85476 5.78986 9.96025C5.89535 10.0657 6.03842 10.125 6.18761 10.125H9.56261C9.71179 10.125 9.85486 10.0657 9.96035 9.96025C10.0658 9.85476 10.1251 9.71169 10.1251 9.56251V5.62501C10.1251 5.47582 10.0658 5.33275 9.96035 5.22726C9.85486 5.12177 9.71179 5.06251 9.56261 5.06251C9.41342 5.06251 9.27035 5.12177 9.16486 5.22726C9.05937 5.33275 9.00011 5.47582 9.00011 5.62501V9.00001ZM16.4094 5.48888C16.7683 4.94793 16.9291 4.29944 16.8644 3.65345C16.7997 3.00745 16.5135 2.40373 16.0544 1.94473C15.5952 1.48572 14.9914 1.19969 14.3454 1.13517C13.6994 1.07065 13.051 1.23162 12.5101 1.59076L13.3336 2.41426C13.6485 2.26386 14.0023 2.2148 14.3462 2.27381C14.6902 2.33282 15.0073 2.49701 15.2541 2.74376C15.5009 2.99052 15.665 3.3077 15.7241 3.65164C15.7831 3.99558 15.734 4.34936 15.5836 4.66426L16.4082 5.48888H16.4094ZM1.72698 5.48888C1.3685 4.94801 1.20806 4.29982 1.27287 3.65418C1.33768 3.00855 1.62374 2.40518 2.08257 1.94635C2.5414 1.48752 3.14477 1.20145 3.79041 1.13665C4.43605 1.07184 5.08424 1.23227 5.62511 1.59076L4.80161 2.41426C4.48671 2.26386 4.13293 2.2148 3.78899 2.27381C3.44505 2.33282 3.12787 2.49701 2.88111 2.74376C2.63435 2.99052 2.47017 3.3077 2.41116 3.65164C2.35214 3.99558 2.40121 4.34936 2.55161 4.66426L1.72698 5.48888Z" fill="white"/>
</svg>
