<svg width="48" height="48" viewBox="0 0 48 48" fill="none" xmlns="http://www.w3.org/2000/svg">
<path d="M45.75 39H34.5V2.25C34.5 2.05109 34.421 1.86032 34.2803 1.71967C34.1397 1.57902 33.9489 1.5 33.75 1.5H2.25C2.05109 1.5 1.86032 1.57902 1.71967 1.71967C1.57902 1.86032 1.5 2.05109 1.5 2.25V39.75C1.5 41.5402 2.21116 43.2571 3.47703 44.523C4.7429 45.7888 6.45979 46.5 8.25 46.5H39.75C41.5402 46.5 43.2571 45.7888 44.523 44.523C45.7888 43.2571 46.5 41.5402 46.5 39.75C46.5 39.5511 46.421 39.3603 46.2803 39.2197C46.1397 39.079 45.9489 39 45.75 39ZM8.25 45C6.85761 45 5.52226 44.4469 4.53769 43.4623C3.55312 42.4777 3 41.1424 3 39.75V3H33V39.75C33.0015 40.7577 33.2286 41.7523 33.6647 42.6607C34.1008 43.5692 34.7347 44.3685 35.52 45H8.25ZM39.75 45C38.4886 44.9985 37.2699 44.5429 36.3169 43.7166C35.3639 42.8903 34.7402 41.7484 34.56 40.5H44.94C44.7598 41.7484 44.1361 42.8903 43.1831 43.7166C42.2301 44.5429 41.0114 44.9985 39.75 45V45Z" fill="black"/>
<path d="M24.2173 24.75C24.0805 24.6122 24.0026 24.4267 23.9998 24.2325V23.25C23.9998 22.6533 23.7627 22.081 23.3408 21.659C22.9188 21.2371 22.3465 21 21.7498 21H20.7748C20.6782 21.0011 20.5825 20.9824 20.4935 20.945C20.4044 20.9076 20.324 20.8523 20.2573 20.7825L19.5673 20.1C19.146 19.6832 18.5774 19.4495 17.9848 19.4495C17.3922 19.4495 16.8235 19.6832 16.4023 20.1L15.7123 20.7825C15.6455 20.8523 15.5651 20.9076 15.4761 20.945C15.3871 20.9824 15.2913 21.0011 15.1948 21H14.2498C13.653 21 13.0807 21.2371 12.6588 21.659C12.2368 22.081 11.9998 22.6533 11.9998 23.25V24.225C11.997 24.4192 11.919 24.6047 11.7823 24.7425L11.0998 25.4325C10.683 25.8538 10.4492 26.4224 10.4492 27.015C10.4492 27.6076 10.683 28.1763 11.0998 28.5975L11.7823 29.2875C11.919 29.4254 11.997 29.6109 11.9998 29.805V41.25C11.9994 41.3935 12.0402 41.534 12.1173 41.655C12.1944 41.776 12.3046 41.8723 12.4348 41.9325C12.5653 41.9926 12.7103 42.0139 12.8525 41.994C12.9948 41.974 13.1283 41.9137 13.2373 41.82L17.9998 37.74L22.7623 41.82C22.8981 41.9362 23.071 42 23.2498 42C23.3583 41.9993 23.4655 41.9763 23.5648 41.9325C23.695 41.8723 23.8051 41.776 23.8822 41.655C23.9593 41.534 24.0001 41.3935 23.9998 41.25V29.79C24.0026 29.5959 24.0805 29.4104 24.2173 29.2725L24.8998 28.5825C25.3166 28.1613 25.5503 27.5926 25.5503 27C25.5503 26.4074 25.3166 25.8388 24.8998 25.4175L24.2173 24.75ZM18.4873 36.18C18.3514 36.0638 18.1785 36 17.9998 36C17.821 36 17.6481 36.0638 17.5123 36.18L13.4998 39.6225V32.8725C13.7405 32.9583 13.9943 33.0015 14.2498 33H15.2248C15.3213 32.9989 15.4171 33.0176 15.5061 33.0551C15.5951 33.0925 15.6755 33.1478 15.7423 33.2175L16.4323 33.9C16.8535 34.3168 17.4222 34.5506 18.0148 34.5506C18.6074 34.5506 19.176 34.3168 19.5973 33.9L20.2873 33.2175C20.354 33.1478 20.4344 33.0925 20.5235 33.0551C20.6125 33.0176 20.7082 32.9989 20.8048 33H21.7498C22.0057 32.9991 22.2596 32.9534 22.4998 32.865V39.615L18.4873 36.18ZM23.8423 27.525L23.1523 28.2075C22.7348 28.6285 22.5003 29.1972 22.4998 29.79V30.75C22.4998 30.9489 22.4208 31.1397 22.2801 31.2804C22.1395 31.421 21.9487 31.5 21.7498 31.5H20.7748C20.1819 31.5005 19.6132 31.735 19.1923 32.1525L18.5098 32.8425C18.3696 32.9799 18.1811 33.0569 17.9848 33.0569C17.7885 33.0569 17.6 32.9799 17.4598 32.8425L16.7773 32.1525C16.36 31.7387 15.7974 31.5045 15.2098 31.5H14.2498C14.0509 31.5 13.8601 31.421 13.7195 31.2804C13.5788 31.1397 13.4998 30.9489 13.4998 30.75V29.775C13.4993 29.1822 13.2648 28.6135 12.8473 28.1925L12.1573 27.51C12.0199 27.3698 11.9429 27.1813 11.9429 26.985C11.9429 26.7887 12.0199 26.6002 12.1573 26.46L12.8473 25.7775C13.2611 25.3603 13.4953 24.7977 13.4998 24.21V23.25C13.4998 23.0511 13.5788 22.8603 13.7195 22.7197C13.8601 22.579 14.0509 22.5 14.2498 22.5H15.2248C15.8176 22.4995 16.3863 22.265 16.8073 21.8475L17.4898 21.1575C17.63 21.0201 17.8185 20.9431 18.0148 20.9431C18.2111 20.9431 18.3996 21.0201 18.5398 21.1575L19.2223 21.8475C19.6432 22.265 20.2119 22.4995 20.8048 22.5H21.7498C21.9487 22.5 22.1395 22.579 22.2801 22.7197C22.4208 22.8603 22.4998 23.0511 22.4998 23.25V24.225C22.5003 24.8179 22.7348 25.3866 23.1523 25.8075L23.8423 26.49C23.9797 26.6302 24.0567 26.8187 24.0567 27.015C24.0567 27.2113 23.9797 27.3998 23.8423 27.54V27.525Z" fill="black"/>
<path d="M18 24C17.4067 24 16.8266 24.1759 16.3333 24.5056C15.8399 24.8352 15.4554 25.3038 15.2284 25.8519C15.0013 26.4001 14.9419 27.0033 15.0576 27.5853C15.1734 28.1672 15.4591 28.7018 15.8787 29.1213C16.2982 29.5409 16.8328 29.8266 17.4147 29.9424C17.9967 30.0581 18.5999 29.9987 19.1481 29.7716C19.6962 29.5446 20.1648 29.1601 20.4944 28.6667C20.8241 28.1734 21 27.5933 21 27C21 26.2044 20.6839 25.4413 20.1213 24.8787C19.5587 24.3161 18.7956 24 18 24ZM18 28.5C17.7033 28.5 17.4133 28.412 17.1666 28.2472C16.92 28.0824 16.7277 27.8481 16.6142 27.574C16.5006 27.2999 16.4709 26.9983 16.5288 26.7074C16.5867 26.4164 16.7296 26.1491 16.9393 25.9393C17.1491 25.7296 17.4164 25.5867 17.7074 25.5288C17.9983 25.4709 18.2999 25.5007 18.574 25.6142C18.8481 25.7277 19.0824 25.92 19.2472 26.1666C19.412 26.4133 19.5 26.7033 19.5 27C19.5 27.3978 19.342 27.7794 19.0607 28.0607C18.7794 28.342 18.3978 28.5 18 28.5ZM29.25 6H6.75C6.55109 6 6.36032 6.07902 6.21967 6.21967C6.07902 6.36032 6 6.55109 6 6.75C6 6.94891 6.07902 7.13968 6.21967 7.28033C6.36032 7.42098 6.55109 7.5 6.75 7.5H29.25C29.4489 7.5 29.6397 7.42098 29.7803 7.28033C29.921 7.13968 30 6.94891 30 6.75C30 6.55109 29.921 6.36032 29.7803 6.21967C29.6397 6.07902 29.4489 6 29.25 6ZM24.75 12C24.9489 12 25.1397 11.921 25.2803 11.7803C25.421 11.6397 25.5 11.4489 25.5 11.25C25.5 11.0511 25.421 10.8603 25.2803 10.7197C25.1397 10.579 24.9489 10.5 24.75 10.5H11.25C11.0511 10.5 10.8603 10.579 10.7197 10.7197C10.579 10.8603 10.5 11.0511 10.5 11.25C10.5 11.4489 10.579 11.6397 10.7197 11.7803C10.8603 11.921 11.0511 12 11.25 12H24.75ZM26.25 15H9.75C9.55109 15 9.36032 15.079 9.21967 15.2197C9.07902 15.3603 9 15.5511 9 15.75C9 15.9489 9.07902 16.1397 9.21967 16.2803C9.36032 16.421 9.55109 16.5 9.75 16.5H26.25C26.4489 16.5 26.6397 16.421 26.7803 16.2803C26.921 16.1397 27 15.9489 27 15.75C27 15.5511 26.921 15.3603 26.7803 15.2197C26.6397 15.079 26.4489 15 26.25 15Z" fill="#BD0000"/>
</svg>
