<svg width="20" height="20" viewBox="0 0 20 20" fill="none" xmlns="http://www.w3.org/2000/svg">
<path d="M4.37484 3.33325H15.6248C16.3166 3.33321 16.9822 3.59788 17.485 4.07298C17.9879 4.54808 18.2898 5.19758 18.329 5.88825L18.3332 6.04158V13.9583C18.3332 14.65 18.0685 15.3156 17.5934 15.8184C17.1183 16.3213 16.4688 16.6233 15.7782 16.6624L15.6248 16.6666H4.37484C3.68306 16.6666 3.01748 16.402 2.51464 15.9269C2.01181 15.4518 1.70984 14.8023 1.67067 14.1116L1.6665 13.9583V6.04158C1.66646 5.3498 1.93113 4.68423 2.40623 4.18139C2.88133 3.67856 3.53083 3.37658 4.2215 3.33742L4.37484 3.33325H15.6248H4.37484ZM17.0832 7.81075L10.2915 11.3858C10.2148 11.4263 10.1305 11.4504 10.044 11.4565C9.95751 11.4627 9.87066 11.4508 9.789 11.4216L9.709 11.3866L2.9165 7.81158V13.9583C2.91652 14.3242 3.05415 14.6768 3.30207 14.9461C3.54999 15.2153 3.89009 15.3815 4.25484 15.4116L4.37484 15.4166H15.6248C15.991 15.4166 16.3437 15.2788 16.6129 15.0307C16.8822 14.7826 17.0483 14.4423 17.0782 14.0774L17.0832 13.9583V7.81075ZM15.6248 4.58325H4.37484C4.00885 4.58327 3.65624 4.72089 3.38701 4.96882C3.11778 5.21674 2.95162 5.55683 2.9215 5.92159L2.9165 6.04158V6.39908L9.99984 10.1266L17.0832 6.39825V6.04158C17.0831 5.67546 16.9454 5.32274 16.6973 5.0535C16.4492 4.78425 16.1089 4.61817 15.744 4.58825L15.6248 4.58325Z" fill="white"/>
</svg>
