<svg width="48" height="48" viewBox="0 0 48 48" fill="none" xmlns="http://www.w3.org/2000/svg">
<path d="M21.75 18C21.75 19.2405 22.7595 20.25 24 20.25C25.2405 20.25 26.25 19.2405 26.25 18C26.25 16.7595 25.2405 15.75 24 15.75C22.7595 15.75 21.75 16.7595 21.75 18ZM24.75 18C24.75 18.414 24.414 18.75 24 18.75C23.586 18.75 23.25 18.414 23.25 18C23.25 17.586 23.586 17.25 24 17.25C24.414 17.25 24.75 17.586 24.75 18Z" fill="#BD0000"/>
<path d="M23.5065 12.1853L17.5065 17.4353C17.343 17.5785 17.25 17.784 17.25 18V33C17.25 33.4148 17.5853 33.75 18 33.75H30C30.4147 33.75 30.75 33.4148 30.75 33V18C30.75 17.784 30.657 17.5785 30.4935 17.4353L24.4935 12.1853C24.2108 11.9378 23.7892 11.9378 23.5065 12.1853ZM29.25 18.3405V32.25H18.75V18.3405L24 13.7468L29.25 18.3405Z" fill="black"/>
<path d="M24 24C24.414 24 24.75 24.336 24.75 24.75H26.25C26.25 23.7735 25.6208 22.9485 24.75 22.638V21.75H23.25V22.638C22.3792 22.9485 21.75 23.7735 21.75 24.75C21.75 25.9905 22.7595 27 24 27C24.414 27 24.75 27.336 24.75 27.75C24.75 28.164 24.414 28.5 24 28.5C23.586 28.5 23.25 28.164 23.25 27.75H21.75C21.75 28.7265 22.3792 29.5515 23.25 29.862V30.75H24.75V29.862C25.6208 29.5515 26.25 28.7265 26.25 27.75C26.25 26.5095 25.2405 25.5 24 25.5C23.586 25.5 23.25 25.164 23.25 24.75C23.25 24.336 23.586 24 24 24ZM40.5 0.75C36.7778 0.75 33.75 3.77775 33.75 7.5C33.75 11.2222 36.7778 14.25 40.5 14.25C44.2222 14.25 47.25 11.2222 47.25 7.5C47.25 3.77775 44.2222 0.75 40.5 0.75ZM40.5 12.75C39.3952 12.75 38.3708 12.405 37.524 11.82C37.6485 10.665 38.9273 9.75 40.5 9.75C41.328 9.75 42.1065 10.0043 42.6825 10.4595C43.1527 10.8413 43.4213 11.319 43.4768 11.8193C42.63 12.405 41.6048 12.75 40.5 12.75ZM39 6.75C39 5.92275 39.6727 5.25 40.5 5.25C41.3273 5.25 42 5.92275 42 6.75C42 7.57725 41.3273 8.25 40.5 8.25C39.6727 8.25 39 7.57725 39 6.75ZM44.694 10.644C44.4615 10.1415 44.1022 9.68025 43.62 9.2895C43.347 9.0735 43.0395 8.90175 42.7192 8.75025C43.1992 8.2185 43.5 7.521 43.5 6.75C43.5 5.0955 42.1545 3.75 40.5 3.75C38.8455 3.75 37.5 5.0955 37.5 6.75C37.5 7.51875 37.7985 8.21325 38.2755 8.74425C37.3838 9.1695 36.684 9.84075 36.3075 10.647C35.6467 9.76875 35.25 8.68125 35.25 7.5C35.25 4.60575 37.6058 2.25 40.5 2.25C43.3942 2.25 45.75 4.60575 45.75 7.5C45.75 8.67975 45.354 9.7665 44.694 10.644ZM7.5 14.25C11.2222 14.25 14.25 11.2222 14.25 7.5C14.25 3.77775 11.2222 0.75 7.5 0.75C3.77775 0.75 0.75 3.77775 0.75 7.5C0.75 11.2222 3.77775 14.25 7.5 14.25ZM7.5 12.75C6.39525 12.75 5.37075 12.405 4.524 11.82C4.6485 10.665 5.92725 9.75 7.5 9.75C8.328 9.75 9.1065 10.0043 9.6825 10.4595C10.1527 10.8413 10.4212 11.319 10.4767 11.8193C9.63 12.405 8.60475 12.75 7.5 12.75ZM6 6.75C6 5.92275 6.67275 5.25 7.5 5.25C8.32725 5.25 9 5.92275 9 6.75C9 7.57725 8.32725 8.25 7.5 8.25C6.67275 8.25 6 7.57725 6 6.75ZM7.5 2.25C10.3942 2.25 12.75 4.60575 12.75 7.5C12.75 8.67975 12.354 9.7665 11.694 10.644C11.4615 10.1415 11.1022 9.68025 10.62 9.2895C10.347 9.0735 10.0395 8.90175 9.71925 8.75025C10.1992 8.2185 10.5 7.521 10.5 6.75C10.5 5.0955 9.1545 3.75 7.5 3.75C5.8455 3.75 4.5 5.0955 4.5 6.75C4.5 7.51875 4.7985 8.21325 5.2755 8.74425C4.38375 9.1695 3.684 9.84075 3.3075 10.647C2.64675 9.76875 2.25 8.68125 2.25 7.5C2.25 4.60575 4.60575 2.25 7.5 2.25ZM40.5 33.75C36.7778 33.75 33.75 36.7778 33.75 40.5C33.75 44.2222 36.7778 47.25 40.5 47.25C44.2222 47.25 47.25 44.2222 47.25 40.5C47.25 36.7778 44.2222 33.75 40.5 33.75ZM40.5 45.75C39.3952 45.75 38.3708 45.405 37.524 44.82C37.6485 43.665 38.9273 42.75 40.5 42.75C41.328 42.75 42.1065 43.0042 42.6825 43.4595C43.1527 43.8412 43.4213 44.319 43.4768 44.8192C42.63 45.405 41.6048 45.75 40.5 45.75ZM39 39.75C39 38.9227 39.6727 38.25 40.5 38.25C41.3273 38.25 42 38.9227 42 39.75C42 40.5773 41.3273 41.25 40.5 41.25C39.6727 41.25 39 40.5773 39 39.75ZM44.694 43.644C44.4615 43.1415 44.1022 42.6803 43.62 42.2895C43.347 42.0735 43.0395 41.9018 42.7192 41.7503C43.1992 41.2185 43.5 40.521 43.5 39.75C43.5 38.0955 42.1545 36.75 40.5 36.75C38.8455 36.75 37.5 38.0955 37.5 39.75C37.5 40.5187 37.7985 41.2133 38.2755 41.7443C37.3838 42.1695 36.684 42.8407 36.3075 43.647C35.6467 42.7687 35.25 41.6813 35.25 40.5C35.25 37.6058 37.6058 35.25 40.5 35.25C43.3942 35.25 45.75 37.6058 45.75 40.5C45.75 41.6797 45.354 42.7665 44.694 43.644ZM7.5 33.75C3.77775 33.75 0.75 36.7778 0.75 40.5C0.75 44.2222 3.77775 47.25 7.5 47.25C11.2222 47.25 14.25 44.2222 14.25 40.5C14.25 36.7778 11.2222 33.75 7.5 33.75ZM7.5 45.75C6.39525 45.75 5.37075 45.405 4.524 44.82C4.6485 43.665 5.92725 42.75 7.5 42.75C8.328 42.75 9.1065 43.0042 9.6825 43.4595C10.1527 43.8412 10.4212 44.319 10.4767 44.8192C9.63 45.405 8.60475 45.75 7.5 45.75ZM6 39.75C6 38.9227 6.67275 38.25 7.5 38.25C8.32725 38.25 9 38.9227 9 39.75C9 40.5773 8.32725 41.25 7.5 41.25C6.67275 41.25 6 40.5773 6 39.75ZM11.694 43.644C11.4615 43.1415 11.1022 42.6803 10.62 42.2895C10.347 42.0735 10.0395 41.9018 9.71925 41.7503C10.1992 41.2185 10.5 40.521 10.5 39.75C10.5 38.0955 9.1545 36.75 7.5 36.75C5.8455 36.75 4.5 38.0955 4.5 39.75C4.5 40.5187 4.7985 41.2133 5.2755 41.7443C4.38375 42.1695 3.684 42.8407 3.3075 43.647C2.64675 42.7687 2.25 41.6813 2.25 40.5C2.25 37.6058 4.60575 35.25 7.5 35.25C10.3942 35.25 12.75 37.6058 12.75 40.5C12.75 41.6797 12.354 42.7665 11.694 43.644ZM14.6782 4.34325L15.321 5.6985C18.0435 4.4055 20.9625 3.75 24 3.75C27.0375 3.75 29.9565 4.4055 32.6782 5.6985L33.321 4.34325C30.3975 2.95425 27.2617 2.25 24 2.25C20.7383 2.25 17.6025 2.95425 14.6782 4.34325ZM4.34325 14.6782C2.95425 17.6025 2.25 20.7383 2.25 24C2.25 27.2617 2.95425 30.3975 4.34325 33.3218L5.6985 32.679C4.4055 29.9565 3.75 27.0375 3.75 24C3.75 20.9625 4.4055 18.0435 5.6985 15.3218L4.34325 14.6782ZM24 44.25C20.9625 44.25 18.0435 43.5945 15.3218 42.3015L14.679 43.6567C17.6025 45.0457 20.7383 45.75 24 45.75C27.2617 45.75 30.3975 45.0457 33.3218 43.6567L32.679 42.3015C29.9565 43.5945 27.0375 44.25 24 44.25ZM43.6567 33.3218C45.0457 30.3975 45.75 27.2617 45.75 24C45.75 20.7383 45.0457 17.6025 43.6567 14.6782L42.3015 15.321C43.5945 18.0435 44.25 20.9625 44.25 24C44.25 27.0375 43.5945 29.9565 42.3015 32.6782L43.6567 33.3218Z" fill="black"/>
<path d="M9 24C9 32.271 15.729 39 24 39C32.271 39 39 32.271 39 24C39 15.729 32.271 9 24 9C15.729 9 9 15.729 9 24ZM37.5 24C37.5 31.4438 31.4438 37.5 24 37.5C16.5562 37.5 10.5 31.4438 10.5 24C10.5 16.5562 16.5562 10.5 24 10.5C31.4438 10.5 37.5 16.5562 37.5 24Z" fill="black"/>
</svg>
