<svg width="18" height="18" viewBox="0 0 18 18" fill="none" xmlns="http://www.w3.org/2000/svg">
<path d="M13.5 7.3125H12.375C12.3746 6.86508 12.1966 6.43612 11.8802 6.11975C11.5639 5.80338 11.1349 5.62545 10.6875 5.625V4.5C11.4331 4.50089 12.148 4.7975 12.6753 5.32475C13.2025 5.852 13.4991 6.56685 13.5 7.3125Z" fill="#bd0000"/>
<path d="M15.7501 7.3125H14.6251C14.6239 6.26858 14.2087 5.26775 13.4705 4.52958C12.7323 3.79142 11.7315 3.37619 10.6876 3.375V2.25C12.0298 2.25149 13.3166 2.78534 14.2657 3.73442C15.2147 4.6835 15.7486 5.9703 15.7501 7.3125ZM14.6251 16.3125H14.5295C3.47633 15.6769 1.90696 6.35063 1.68758 3.50438C1.65329 3.05817 1.79765 2.61662 2.0889 2.27685C2.38015 1.93707 2.79444 1.7269 3.24064 1.69256C3.28527 1.68919 3.33008 1.6875 3.37508 1.6875H6.33946C6.56477 1.68728 6.78496 1.75472 6.9715 1.88109C7.15804 2.00746 7.30234 2.18693 7.38571 2.39625L8.24071 4.5C8.32303 4.7045 8.34346 4.92867 8.29946 5.14468C8.25546 5.36068 8.14896 5.559 7.99321 5.715L6.79508 6.92438C6.98147 7.98825 7.49055 8.96905 8.25327 9.73379C9.01599 10.4985 9.99545 11.0102 11.0588 11.1994L12.2795 9.99C12.4378 9.83596 12.638 9.73195 12.8551 9.69094C13.0721 9.64993 13.2965 9.67373 13.5001 9.75938L15.6207 10.6088C15.8269 10.6947 16.0028 10.8402 16.126 11.0265C16.2492 11.2128 16.3142 11.4316 16.3126 11.655V14.625C16.3126 15.0726 16.1348 15.5018 15.8183 15.8182C15.5019 16.1347 15.0726 16.3125 14.6251 16.3125ZM3.37508 2.8125C3.30121 2.81228 3.22802 2.82661 3.15969 2.85467C3.09136 2.88274 3.02923 2.92398 2.97684 2.97606C2.92445 3.02814 2.88283 3.09002 2.85436 3.15818C2.82588 3.22634 2.81111 3.29944 2.81089 3.37331C2.81089 3.38906 2.81146 3.40463 2.81258 3.42C3.07133 6.75 4.73071 14.625 14.5913 15.1875C14.7402 15.1964 14.8865 15.1459 14.9981 15.0469C15.1097 14.948 15.1775 14.8088 15.1865 14.6599L15.1876 14.625V11.655L13.067 10.8056L11.4526 12.4087L11.1826 12.375C6.28883 11.7619 5.62508 6.86813 5.62508 6.8175L5.59133 6.5475L7.18883 4.93313L6.34508 2.8125H3.37508Z" fill="#bd0000"/>
</svg>
