<svg width="8" height="11" viewBox="0 0 8 11" fill="none" xmlns="http://www.w3.org/2000/svg">
<path d="M3.27219 10.6071C3.30579 10.6436 3.34593 10.6727 3.39026 10.6925C3.43458 10.7123 3.48219 10.7225 3.53027 10.7224C3.57835 10.7223 3.62593 10.712 3.6702 10.6921C3.71447 10.6721 3.75453 10.6429 3.78801 10.6062L7.8877 6.1322C7.9597 6.05363 8 5.94825 8 5.83853C8 5.72882 7.9597 5.62344 7.8877 5.54487L3.78801 1.07085C3.75447 1.03421 3.71437 1.00509 3.67007 0.985208C3.62578 0.965322 3.57818 0.955078 3.5301 0.955078C3.48202 0.955078 3.43443 0.965322 3.39013 0.985208C3.34584 1.00509 3.30573 1.03421 3.27219 1.07085C3.20319 1.14599 3.16456 1.24686 3.16456 1.3519C3.16456 1.45694 3.20319 1.55781 3.27219 1.63295L7.12741 5.83853L3.27219 10.0458C3.20342 10.1209 3.16494 10.2216 3.16494 10.3264C3.16494 10.4313 3.20342 10.532 3.27219 10.6071ZM0.107637 10.6071C0.14123 10.6436 0.181375 10.6727 0.225701 10.6925C0.270026 10.7123 0.317634 10.7225 0.365715 10.7224C0.413795 10.7223 0.461374 10.712 0.505642 10.6921C0.54991 10.6721 0.589971 10.6429 0.623459 10.6062L4.72314 6.1322C4.79515 6.05363 4.83544 5.94825 4.83544 5.83853C4.83544 5.72882 4.79515 5.62344 4.72314 5.54487L0.623459 1.07085C0.589918 1.03421 0.549815 1.00509 0.505518 0.985208C0.461222 0.965322 0.413628 0.955078 0.365548 0.955078C0.317467 0.955078 0.269874 0.965322 0.225577 0.985208C0.18128 1.00509 0.141178 1.03421 0.107637 1.07085C0.0386315 1.14599 0 1.24686 0 1.3519C0 1.45694 0.0386315 1.55781 0.107637 1.63295L3.96286 5.83853L0.107637 10.0458C0.0388682 10.1209 0.000385732 10.2216 0.000385732 10.3264C0.000385732 10.4313 0.0388682 10.532 0.107637 10.6071Z" fill="white"/>
</svg>
