<svg width="18" height="18" viewBox="0 0 18 18" fill="none" xmlns="http://www.w3.org/2000/svg">
<path d="M16.9999 8.38989C17.1857 8.25145 17.3236 8.05833 17.3941 7.8376C17.4647 7.61686 17.4643 7.37959 17.3932 7.15905C17.3221 6.9385 17.1837 6.74575 16.9975 6.60781C16.8113 6.46988 16.5866 6.39367 16.3549 6.38989L11.8549 6.21989C11.8328 6.21836 11.8116 6.21047 11.7938 6.19716C11.7761 6.18386 11.7626 6.1657 11.7549 6.14489L10.1999 1.94489C10.1218 1.73121 9.97989 1.5467 9.79342 1.41634C9.60696 1.28598 9.38494 1.21606 9.15742 1.21606C8.9299 1.21606 8.70788 1.28598 8.52142 1.41634C8.33495 1.5467 8.19305 1.73121 8.11492 1.94489L6.56492 6.15989C6.55726 6.1807 6.54374 6.19886 6.526 6.21216C6.50826 6.22547 6.48705 6.23336 6.46492 6.23489L1.96492 6.40489C1.73322 6.40867 1.50852 6.48488 1.32232 6.62281C1.13611 6.76075 0.99775 6.9535 0.926625 7.17405C0.8555 7.39459 0.855181 7.63186 0.925713 7.8526C0.996244 8.07333 1.13409 8.26645 1.31992 8.40489L4.84992 11.1799C4.86759 11.1938 4.88079 11.2126 4.8879 11.2339C4.89501 11.2552 4.89571 11.2782 4.88992 11.2999L3.67492 15.6049C3.61196 15.8241 3.61806 16.0574 3.69239 16.273C3.76672 16.4887 3.90567 16.6762 4.09034 16.81C4.27502 16.9439 4.49644 17.0176 4.7245 17.0212C4.95255 17.0247 5.17617 16.9579 5.36492 16.8299L9.09492 14.3299C9.11329 14.3172 9.13509 14.3104 9.15742 14.3104C9.17975 14.3104 9.20155 14.3172 9.21992 14.3299L12.9499 16.8299C13.1361 16.9623 13.3589 17.0335 13.5874 17.0335C13.8159 17.0335 14.0387 16.9623 14.2249 16.8299C14.4096 16.6973 14.5487 16.5107 14.623 16.2958C14.6974 16.0809 14.7033 15.8483 14.6399 15.6299L13.4149 11.3099C13.4084 11.2882 13.4088 11.265 13.4159 11.2436C13.4231 11.2221 13.4367 11.2033 13.4549 11.1899L16.9999 8.38989Z" fill="#BD0000"/>
</svg>
