<svg width="48" height="48" viewBox="0 0 48 48" fill="none" xmlns="http://www.w3.org/2000/svg">
<path d="M26.25 42H21.75C21.5511 42 21.3603 42.079 21.2197 42.2197C21.079 42.3603 21 42.5511 21 42.75C21 42.9489 21.079 43.1397 21.2197 43.2803C21.3603 43.421 21.5511 43.5 21.75 43.5H26.25C26.4489 43.5 26.6397 43.421 26.7803 43.2803C26.921 43.1397 27 42.9489 27 42.75C27 42.5511 26.921 42.3603 26.7803 42.2197C26.6397 42.079 26.4489 42 26.25 42Z" fill="black"/>
<path d="M9.75 6C8.5095 6 7.5 7.0095 7.5 8.25V15.528C7.5 17.7765 8.9295 19.7745 11.058 20.4975L16.1625 22.236C17.279 23.4932 18.6807 24.4644 20.25 25.068V26.25C20.25 27.2265 20.8785 28.0515 21.75 28.362V36H20.25C19.0095 36 18 37.0095 18 38.25V39H17.25C16.0095 39 15 40.0095 15 41.25V47.25C15 47.4489 15.079 47.6397 15.2197 47.7803C15.3603 47.921 15.5511 48 15.75 48H32.25C32.4489 48 32.6397 47.921 32.7803 47.7803C32.921 47.6397 33 47.4489 33 47.25V41.25C33 40.0095 31.9905 39 30.75 39H30V38.25C30 37.0095 28.9905 36 27.75 36H26.25V28.362C27.1215 28.0515 27.75 27.2265 27.75 26.25V25.068C29.3188 24.4634 30.7202 23.4924 31.8375 22.236L36.942 20.4975C37.98 20.1448 38.8814 19.4758 39.5195 18.5845C40.1577 17.6931 40.5006 16.6242 40.5 15.528V8.25C40.5 7.0095 39.4905 6 38.25 6H34.5V4.362C35.3715 4.0515 36 3.2265 36 2.25C36 1.0095 34.9905 0 33.75 0H14.25C13.0095 0 12 1.0095 12 2.25C12 3.2265 12.6285 4.0515 13.5 4.362V6H9.75ZM11.541 19.0785C10.7998 18.8261 10.1562 18.3479 9.7005 17.7112C9.2448 17.0744 8.99985 16.311 9 15.528V8.25C9 8.05109 9.07902 7.86032 9.21967 7.71967C9.36032 7.57902 9.55109 7.5 9.75 7.5H13.5V15.273C13.5 17.037 13.9425 18.6975 14.7135 20.1585L11.541 19.0785ZM31.5 41.25V46.5H16.5V41.25C16.5 41.0511 16.579 40.8603 16.7197 40.7197C16.8603 40.579 17.0511 40.5 17.25 40.5H30.75C30.9489 40.5 31.1397 40.579 31.2803 40.7197C31.421 40.8603 31.5 41.0511 31.5 41.25ZM28.5 38.25V39H19.5V38.25C19.5 38.0511 19.579 37.8603 19.7197 37.7197C19.8603 37.579 20.0511 37.5 20.25 37.5H27.75C27.9489 37.5 28.1397 37.579 28.2803 37.7197C28.421 37.8603 28.5 38.0511 28.5 38.25ZM23.25 36V28.5H24.75V36H23.25ZM26.25 26.25C26.25 26.4489 26.171 26.6397 26.0303 26.7803C25.8897 26.921 25.6989 27 25.5 27H22.5C22.3011 27 22.1103 26.921 21.9697 26.7803C21.829 26.6397 21.75 26.4489 21.75 26.25V25.5435C23.2254 25.9275 24.7746 25.9275 26.25 25.5435V26.25ZM26.868 23.796C26.8215 23.805 26.7735 23.796 26.727 23.814C26.3985 23.943 26.061 24.0225 25.725 24.102C24.5859 24.3255 23.4141 24.3255 22.275 24.102C21.9375 24.021 21.6 23.9415 21.273 23.814C21.228 23.796 21.18 23.8035 21.132 23.796C17.5725 22.5945 15 19.2315 15 15.273V4.5H33V15.273C33 19.2315 30.4275 22.5945 26.868 23.796ZM38.25 7.5C38.4489 7.5 38.6397 7.57902 38.7803 7.71967C38.921 7.86032 39 8.05109 39 8.25V15.528C39.0002 16.311 38.7552 17.0744 38.2995 17.7112C37.8438 18.3479 37.2002 18.8261 36.459 19.0785L33.2865 20.1585C34.0836 18.6534 34.5002 16.9761 34.5 15.273V7.5H38.25ZM14.25 1.5H33.75C33.9489 1.5 34.1397 1.57902 34.2803 1.71967C34.421 1.86032 34.5 2.05109 34.5 2.25C34.5 2.44891 34.421 2.63968 34.2803 2.78033C34.1397 2.92098 33.9489 3 33.75 3H14.25C14.0511 3 13.8603 2.92098 13.7197 2.78033C13.579 2.63968 13.5 2.44891 13.5 2.25C13.5 2.05109 13.579 1.86032 13.7197 1.71967C13.8603 1.57902 14.0511 1.5 14.25 1.5Z" fill="black"/>
<path d="M27.1982 12.0645L25.4537 11.811L24.6722 10.23C24.4202 9.71703 23.5787 9.71703 23.3282 10.23L22.5467 11.811L20.8022 12.0645C20.6635 12.084 20.533 12.1421 20.4258 12.2322C20.3185 12.3223 20.2387 12.4408 20.1955 12.574C20.1524 12.7073 20.1475 12.8501 20.1816 12.9859C20.2157 13.1218 20.2873 13.2454 20.3882 13.3425L21.6497 14.5725L21.3512 16.311C21.3274 16.449 21.3426 16.5908 21.3951 16.7206C21.4477 16.8503 21.5356 16.9628 21.6487 17.0452C21.7619 17.1276 21.8958 17.1767 22.0355 17.1869C22.1751 17.1971 22.3148 17.1681 22.4387 17.103L24.0002 16.2825L25.5617 17.103C25.6858 17.1673 25.8252 17.1958 25.9645 17.1855C26.1038 17.1752 26.2375 17.1264 26.3507 17.0445C26.464 16.9623 26.5519 16.85 26.6047 16.7204C26.6574 16.5908 26.6729 16.449 26.6492 16.311L26.3507 14.5725L27.6122 13.3425C27.7132 13.2454 27.7848 13.1218 27.8188 12.9859C27.8529 12.8501 27.8481 12.7073 27.8049 12.574C27.7617 12.4408 27.682 12.3223 27.5747 12.2322C27.4674 12.1421 27.337 12.084 27.1982 12.0645V12.0645ZM25.0232 13.776C24.9362 13.8608 24.8709 13.9654 24.833 14.0808C24.7952 14.1963 24.7858 14.3192 24.8057 14.439L24.9137 15.0675L24.3482 14.7705C24.241 14.7139 24.1215 14.6843 24.0002 14.6843C23.8789 14.6843 23.7595 14.7139 23.6522 14.7705L23.0867 15.0675L23.1947 14.439C23.2152 14.3192 23.206 14.1961 23.1681 14.0806C23.1302 13.965 23.0647 13.8605 22.9772 13.776L22.5212 13.3305L23.1527 13.2375C23.2729 13.2203 23.3871 13.1739 23.4854 13.1026C23.5837 13.0312 23.6631 12.937 23.7167 12.828L24.0002 12.255L24.2822 12.8265C24.3902 13.047 24.6032 13.2015 24.8462 13.236L25.4777 13.329L25.0232 13.776V13.776Z" fill="#BD0000"/>
</svg>
