<svg width="17" height="17" viewBox="0 0 17 17" fill="none" xmlns="http://www.w3.org/2000/svg">
<g clip-path="url(#clip0_26_543)">
<path d="M8.50003 2.96689e-05C7.56078 2.96689e-05 6.66049 0.155863 5.81757 0.434238C9.31674 -0.44622 11.8915 1.65257 13.6772 4.40515C14.8991 6.31411 15.6698 6.40974 16.6572 6.11365C16.1457 4.3471 15.0731 2.79504 13.6015 1.69207C12.1298 0.589101 10.3391 -0.00483685 8.50003 2.96689e-05ZM5.42445 1.5272C4.25995 1.54065 3.09049 2.07615 1.93166 3.09049C0.677834 4.61391 -0.00528562 6.527 3.07986e-05 8.50003C0.130364 6.5004 1.53216 4.8677 3.44961 4.90878C4.93995 4.93995 6.74195 5.98403 8.50003 8.65515C11.9496 13.945 16.2329 12.5389 16.903 9.72474C16.9604 9.32382 17 8.91724 17 8.50003C17 8.37536 16.9859 8.25424 16.9809 8.13099C15.8157 9.35286 13.5108 9.79557 11.1272 6.02724C9.29266 2.93678 7.36599 1.50595 5.42516 1.5272H5.42445ZM2.35878 9.37553C1.17232 9.46761 0.476739 10.6534 0.770698 12.036C1.44493 13.5194 2.53279 14.7767 3.90378 15.6572C5.27476 16.5377 6.87066 17.0039 8.50003 17C11.4857 17 14.0944 15.4778 15.6096 13.1665V13.1361C13.6007 15.6082 9.27282 16.15 5.79561 11.5905C4.5107 9.9004 3.28528 9.30399 2.35878 9.37553Z" fill="white"/>
</g>
<defs>
<clipPath id="clip0_26_543">
<rect width="17" height="17" fill="white"/>
</clipPath>
</defs>
</svg>
